<svg width="90" height="93" viewBox="0 0 90 93" fill="none" xmlns="http://www.w3.org/2000/svg">
<circle cx="45" cy="45" r="45" fill="#07B4BB"/>
<path d="M55.6133 21.43C55.6133 19.19 56.99 18.07 59.7433 18.07C62.5433 18.07 63.9433 19.19 63.9433 21.43V71.06C63.9433 73.3 62.5433 74.42 59.7433 74.42C56.99 74.42 55.6133 73.3 55.6133 71.06V21.43ZM34.3333 71.06C34.3333 73.3 32.9333 74.42 30.1333 74.42C27.38 74.42 26.0033 73.3 26.0033 71.06V21.43C26.0033 19.19 27.38 18.07 30.1333 18.07C32.9333 18.07 34.3333 19.19 34.3333 21.43V71.06ZM50.7133 45.09C50.7133 46.7233 50.1533 48.1 49.0333 49.22C47.9133 50.34 46.5367 50.9 44.9033 50.9C43.3167 50.9 41.9633 50.34 40.8433 49.22C39.7233 48.1 39.1633 46.7233 39.1633 45.09C39.1633 43.4567 39.7233 42.08 40.8433 40.96C41.9633 39.84 43.3167 39.28 44.9033 39.28C46.5367 39.28 47.9133 39.84 49.0333 40.96C50.1533 42.08 50.7133 43.4567 50.7133 45.09Z" fill="white"/>
<path d="M51 45C51 48.3137 48.3137 51 45 51C41.6863 51 39 48.3137 39 45C39 41.6863 41.6863 39 45 39C48.3137 39 51 41.6863 51 45Z" fill="white"/>
</svg>
