<svg width="225" height="53" viewBox="0 0 225 53" fill="none" xmlns="http://www.w3.org/2000/svg">
<path d="M32.6608 3.936C32.6608 1.888 33.9194 0.863998 36.4368 0.863998C38.9968 0.863998 40.2768 1.888 40.2768 3.936V49.312C40.2768 51.36 38.9968 52.384 36.4368 52.384C33.9194 52.384 32.6608 51.36 32.6608 49.312V3.936ZM13.2048 49.312C13.2048 51.36 11.9248 52.384 9.36475 52.384C6.84742 52.384 5.58875 51.36 5.58875 49.312V3.936C5.58875 1.888 6.84742 0.863998 9.36475 0.863998C11.9248 0.863998 13.2048 1.888 13.2048 3.936V49.312ZM28.1808 25.568C28.1808 27.0613 27.6688 28.32 26.6448 29.344C25.6208 30.368 24.3621 30.88 22.8688 30.88C21.4181 30.88 20.1808 30.368 19.1568 29.344C18.1328 28.32 17.6208 27.0613 17.6208 25.568C17.6208 24.0747 18.1328 22.816 19.1568 21.792C20.1808 20.768 21.4181 20.256 22.8688 20.256C24.3621 20.256 25.6208 20.768 26.6448 21.792C27.6688 22.816 28.1808 24.0747 28.1808 25.568ZM57.5233 49.312C57.5233 51.36 56.2433 52.384 53.6833 52.384C51.1659 52.384 49.9073 51.36 49.9073 49.312V3.936C49.9073 1.888 51.1659 0.863998 53.6833 0.863998C56.2433 0.863998 57.5233 1.888 57.5233 3.936V49.312ZM84.8643 49.44C84.8643 51.488 83.5843 52.512 81.0243 52.512C78.5069 52.512 77.2483 51.488 77.2483 49.44V7.648H66.0483C64.5123 7.648 63.7016 6.56 63.6163 4.384C63.6163 2.25067 64.4269 1.184 66.0483 1.184H96.0643C97.6856 1.184 98.4536 2.25067 98.3683 4.384C98.3683 6.56 97.6003 7.648 96.0643 7.648H84.8643V49.44ZM108.185 52.064C106.606 52.064 105.539 51.6587 104.985 50.848C104.43 50.0373 104.153 49.1413 104.153 48.16V5.024C104.153 4.04266 104.43 3.168 104.985 2.4C105.539 1.58933 106.606 1.184 108.185 1.184H130.457C132.035 1.184 132.867 2.25067 132.953 4.384C133.038 6.56 132.206 7.648 130.457 7.648H111.705V45.6H131.609C133.187 45.6 133.998 46.6453 134.041 48.736C134.126 50.9547 133.315 52.064 131.609 52.064H108.185ZM128.089 25.568C128.089 27.0613 127.555 28.32 126.489 29.344C125.465 30.368 124.206 30.88 122.713 30.88C121.262 30.88 120.025 30.368 119.001 29.344C117.977 28.32 117.465 27.0613 117.465 25.568C117.465 24.0747 117.977 22.816 119.001 21.792C120.025 20.768 121.262 20.256 122.713 20.256C124.206 20.256 125.465 20.768 126.489 21.792C127.555 22.816 128.089 24.0747 128.089 25.568ZM165.22 22.752C166.329 22.752 167.481 22.9867 168.676 23.456C169.87 23.9253 171.022 24.544 172.132 25.312H172.068C173.177 26.08 174.03 27.1253 174.628 28.448C175.225 29.7707 175.524 31.2853 175.524 32.992V41.76C175.524 45.216 174.372 47.7973 172.068 49.504C170.958 50.3147 169.806 50.9547 168.612 51.424C167.46 51.8507 166.329 52.064 165.22 52.064H151.268C150.158 52.064 149.006 51.8507 147.812 51.424C146.66 50.9547 145.529 50.3147 144.42 49.504C142.116 47.7973 140.964 45.216 140.964 41.76V37.536C140.964 35.5307 142.222 34.528 144.74 34.528C147.3 34.528 148.58 35.5307 148.58 37.536V41.248C148.58 42.3573 148.9 43.36 149.54 44.256C150.18 45.152 151.289 45.6 152.868 45.6H163.62C165.198 45.6 166.308 45.152 166.948 44.256C167.588 43.36 167.908 42.3573 167.908 41.248V33.504C167.908 32.4373 167.588 31.456 166.948 30.56C166.308 29.6213 165.198 29.152 163.62 29.152H151.268C149.049 29.152 146.766 28.3413 144.42 26.72C142.116 24.928 140.964 22.3467 140.964 18.976V11.36C140.964 9.65333 141.262 8.16 141.86 6.88C142.457 5.55733 143.31 4.49066 144.42 3.68H144.356C145.465 2.95466 146.617 2.35733 147.812 1.888C149.006 1.41866 150.158 1.184 151.268 1.184H165.22C166.329 1.184 167.481 1.41866 168.676 1.888C169.87 2.35733 171.022 2.95466 172.132 3.68H172.068C173.177 4.49066 174.03 5.55733 174.628 6.88C175.225 8.16 175.524 9.65333 175.524 11.36V15.136C175.524 17.1413 174.244 18.144 171.684 18.144C169.166 18.144 167.908 17.1413 167.908 15.136V11.936C167.908 10.8693 167.588 9.888 166.948 8.992C166.308 8.096 165.198 7.648 163.62 7.648H152.868C151.289 7.648 150.18 8.096 149.54 8.992C148.9 9.888 148.58 10.8693 148.58 11.936V18.464C148.58 19.5733 148.9 20.576 149.54 21.472C150.18 22.3253 151.289 22.752 152.868 22.752H165.22ZM212.661 3.936C212.661 1.888 213.919 0.863998 216.437 0.863998C218.997 0.863998 220.277 1.888 220.277 3.936V49.312C220.277 51.36 218.997 52.384 216.437 52.384C213.919 52.384 212.661 51.36 212.661 49.312V3.936ZM193.205 49.312C193.205 51.36 191.925 52.384 189.365 52.384C186.847 52.384 185.589 51.36 185.589 49.312V3.936C185.589 1.888 186.847 0.863998 189.365 0.863998C191.925 0.863998 193.205 1.888 193.205 3.936V49.312ZM208.181 25.568C208.181 27.0613 207.669 28.32 206.645 29.344C205.621 30.368 204.362 30.88 202.869 30.88C201.418 30.88 200.181 30.368 199.157 29.344C198.133 28.32 197.621 27.0613 197.621 25.568C197.621 24.0747 198.133 22.816 199.157 21.792C200.181 20.768 201.418 20.256 202.869 20.256C204.362 20.256 205.621 20.768 206.645 21.792C207.669 22.816 208.181 24.0747 208.181 25.568Z" fill="#E5997D"/>
<circle cx="23" cy="26" r="6" fill="#07B4BB"/>
<path d="M129 26C129 29.3137 126.314 32 123 32C119.686 32 117 29.3137 117 26C117 22.6863 119.686 20 123 20C126.314 20 129 22.6863 129 26Z" fill="#07B4BB"/>
<path d="M209 26C209 29.3137 206.314 32 203 32C199.686 32 197 29.3137 197 26C197 22.6863 199.686 20 203 20C206.314 20 209 22.6863 209 26Z" fill="#07B4BB"/>
</svg>
